<svg width="19" height="19" viewBox="0 0 19 19" fill="none" xmlns="http://www.w3.org/2000/svg">
<path d="M5.80379 6.02131C6.02239 5.92158 6.19777 5.74649 6.29786 5.52805L8.53745 0.640043C8.89448 -0.139191 10.0023 -0.137524 10.3569 0.642781L12.5763 5.52531C12.6763 5.74542 12.8527 5.92183 13.0728 6.02188L17.9554 8.24121C18.7357 8.59589 18.7373 9.70366 17.9581 10.0607L13.0701 12.3003C12.8517 12.4004 12.6766 12.5758 12.5768 12.7944L10.3564 17.6616C10.0012 18.4403 8.8956 18.4419 8.53803 17.6644L6.29728 12.7916C6.19753 12.5747 6.02346 12.4006 5.80653 12.3009L0.933789 10.0601C0.156228 9.70255 0.157894 8.59699 0.93653 8.24177L5.80379 6.02131Z" fill="white"/>
</svg>
