<svg width="450" height="210" viewBox="0 0 450 210" fill="none" xmlns="http://www.w3.org/2000/svg">
<path fill-rule="evenodd" clip-rule="evenodd" d="M390.575 105.802C365.662 118.724 329.912 132.328 289.247 143.489C248.582 154.649 210.896 161.2 182.877 162.806C168.839 163.61 157.415 163.161 149.315 161.518C145.259 160.695 142.226 159.609 140.153 158.368C138.097 157.137 137.239 155.918 136.949 154.86C136.659 153.802 136.774 152.316 137.913 150.208C139.063 148.082 141.116 145.601 144.184 142.823C150.311 137.275 159.905 131.057 172.387 124.583C197.3 111.661 233.05 98.0572 273.715 86.8965C314.38 75.7357 352.066 69.1847 380.085 67.5793C394.123 66.7749 405.547 67.2242 413.647 68.8675C417.703 69.6903 420.736 70.7759 422.809 72.0172C424.865 73.2481 425.723 74.4673 426.013 75.5251C426.304 76.583 426.188 78.0692 425.049 80.1772C423.899 82.303 421.846 84.7843 418.778 87.5623C412.652 93.1102 403.057 99.328 390.575 105.802ZM429.325 74.6162C434.116 92.0728 371.808 124.391 290.156 146.801C208.504 169.21 138.428 173.225 133.637 155.769C128.846 138.312 191.154 105.994 272.806 83.5845C354.458 61.1748 424.534 57.1595 429.325 74.6162Z" fill="url(#paint0_linear_18_4)"/>
<path d="M23 109.489H57.557C75.1858 109.489 85.3428 101.003 85.3428 86.4716C85.3428 76.5905 80.7896 69.8481 71.8001 66.9419C79.8557 63.5707 84.0586 56.8283 84.0586 47.4121C84.0586 33.2299 73.7848 24.5112 56.9733 24.5112H23V109.489ZM55.6891 37.6473C64.0949 37.6473 68.7647 41.5997 68.7647 48.9234C68.7647 56.4795 64.2116 60.7807 56.0393 60.7807H37.9436V37.6473H55.6891ZM56.9733 73.3355C65.2623 73.3355 70.0489 77.4042 70.0489 84.6116C70.0489 92.284 65.3791 96.3527 56.9733 96.3527H37.9436V73.3355H56.9733Z" fill="white"/>
<path d="M113.989 24.5112H99.045V109.489H149.713V95.7715H113.989V24.5112Z" fill="white"/>
<path d="M171.5 109.489L178.388 89.8428H210.26L217.148 109.489H232.909L202.088 24.5112H186.794L155.973 109.489H171.5ZM192.514 49.8534C193.332 47.5284 194.032 44.9709 194.382 43.3435C194.616 45.0872 195.433 47.6446 196.134 49.8534L205.94 77.288H182.824L192.514 49.8534Z" fill="white"/>
<path d="M238.707 48.2259C238.707 61.2457 246.295 69.4993 260.772 72.638L274.315 75.6605C281.32 77.1717 284.238 80.5429 284.238 86.2391C284.238 93.3303 277.934 97.6314 268.01 97.6314C258.437 97.6314 252.6 93.3303 252.483 86.1229H237.539C237.89 101.351 249.798 111 268.01 111C286.807 111 299.182 100.77 299.182 84.9604C299.182 72.2893 292.06 64.8494 277.467 61.7107L264.041 58.8045C256.919 57.177 253.651 53.8058 253.651 47.7609C253.651 40.6697 259.605 36.2523 268.828 36.2523C277.233 36.2523 282.487 40.5535 282.837 47.8771H297.781C297.314 32.5324 286.34 23 269.061 23C251.082 23 238.707 33.3461 238.707 48.2259Z" fill="white"/>
<path d="M304.089 38.2285H329.073V109.489H344.016V38.2285H369V24.5112H304.089V38.2285Z" fill="white"/>
<g filter="url(#filter0_f_18_4)">
<path d="M251 181L253.072 174.1C254.259 170.143 256.714 166.529 260.174 163.645C263.635 160.761 267.972 158.716 272.72 157.727L281 156L272.72 154.273C267.972 153.284 263.635 151.239 260.174 148.355C256.714 145.471 254.259 141.857 253.072 137.9L251 131L248.928 137.9C247.742 141.856 245.288 145.469 241.829 148.353C238.37 151.237 234.035 153.283 229.288 154.273L221 156L229.288 157.727C234.035 158.717 238.37 160.763 241.829 163.647C245.288 166.531 247.742 170.144 248.928 174.1L251 181Z" fill="url(#paint1_linear_18_4)"/>
</g>
<path d="M251 165L251.76 162.378C252.195 160.874 253.095 159.501 254.364 158.405C255.633 157.309 257.223 156.532 258.964 156.156L262 155.5L258.964 154.844C257.223 154.468 255.633 153.691 254.364 152.595C253.095 151.499 252.195 150.126 251.76 148.622L251 146L250.24 148.622C249.805 150.125 248.906 151.498 247.637 152.594C246.369 153.69 244.779 154.468 243.039 154.844L240 155.5L243.039 156.156C244.779 156.532 246.369 157.31 247.637 158.406C248.906 159.502 249.805 160.875 250.24 162.378L251 165Z" fill="#E3FFFF"/>
<defs>
<filter id="filter0_f_18_4" x="214" y="124" width="74" height="64" filterUnits="userSpaceOnUse" color-interpolation-filters="sRGB">
<feFlood flood-opacity="0" result="BackgroundImageFix"/>
<feBlend mode="normal" in="SourceGraphic" in2="BackgroundImageFix" result="shape"/>
<feGaussianBlur stdDeviation="3.5" result="effect1_foregroundBlur_18_4"/>
</filter>
<linearGradient id="paint0_linear_18_4" x1="158.448" y1="127.152" x2="170.031" y2="176.449" gradientUnits="userSpaceOnUse">
<stop stop-color="#0D0D0D"/>
<stop offset="0.515625" stop-color="#353EFF"/>
<stop offset="1" stop-color="#E2D9FF"/>
</linearGradient>
<linearGradient id="paint1_linear_18_4" x1="272.923" y1="148.308" x2="238.32" y2="147.988" gradientUnits="userSpaceOnUse">
<stop stop-color="#2835FF"/>
<stop offset="1" stop-color="#B793FF"/>
</linearGradient>
</defs>
</svg>
